PathFileType	4	(X/Y/Z)	Patient4_TMGait_0pt4_01_right_02.trc.trc
DataRate	CameraRate	NumFrames	NumMarkers	Units	OrigDataRate	OrigDataStartFrame	OrigNumFrames
72.164948453608	72.164948453608	6	33	mm	72.164948453608	53	       141
Frame#	Time	Sacral			L.Shoulder			Chest			R.Shoulder			Neck			R.ASIS			L.ASIS			R.Thigh.Superior			R.Thigh.Lateral			R.Thigh.Inferior			R.Patella			L.Thigh.Superior			L.Thigh.Lateral			L.Thigh.Inferior			L.Patella			L.Shank.Superior			L.Shank.Lateral			L.Shank.Inferior			R.Shank.Superior			R.Shank.Lateral			R.Shank.Inferior			R.Heel			R.Midfoot.Superior			R.Midfoot.Lateral			R.Toe			L.Heel			L.Midfoot.Lateral			L.Midfoot.Superior			L.Toe			L.Elbow			L.Wrist			R.Elbow			R.Wrist			
		X1	Y1	Z1	X2	Y2	Z2	X3	Y3	Z3	X4	Y4	Z4	X5	Y5	Z5	X6	Y6	Z6	X7	Y7	Z7	X8	Y8	Z8	X9	Y9	Z9	X10	Y10	Z10	X11	Y11	Z11	X12	Y12	Z12	X13	Y13	Z13	X14	Y14	Z14	X15	Y15	Z15	X16	Y16	Z16	X17	Y17	Z17	X18	Y18	Z18	X19	Y19	Z19	X20	Y20	Z20	X21	Y21	Z21	X22	Y22	Z22	X23	Y23	Z23	X24	Y24	Z24	X25	Y25	Z25	X26	Y26	Z26	X27	Y27	Z27	X28	Y28	Z28	X29	Y29	Z29	X30	Y30	Z30	X31	Y31	Z31	X32	Y32	Z32	X33	Y33	Z33	

53	2.790571428571	871.978780861033	1008.803819406955	558.857005684837	1037.811001414142	1432.357939163192	348.584793868437	1158.305804865262	1362.643704241111	495.855182774769	1102.779302034458	1443.501314313501	677.784641011098	1060.269561714237	1497.811577693281	500.965408911491	1114.747767703889	942.041107038719	642.773298268366	1063.216716694357	969.072433207310	373.212299051620	1145.518192204064	739.973542656897	603.960335984189	1068.704727862681	632.196614093013	671.690713070082	1132.662679504612	580.179950688814	580.844096966936	1130.033046095317	494.474595069816	584.196396933154	1152.798050763263	793.845169386948	396.277885853808	1110.072524594256	666.171393656475	317.411457338198	1218.753586833650	608.320837143310	371.098453128603	1239.917818669679	526.780253164503	360.583639447232	1192.960598404463	452.740342042400	350.967506371879	1071.477117908497	369.127302235583	307.048427687978	1108.770408428443	240.110047220993	351.670241091380	1104.011235345995	405.281227482409	593.001866336119	1040.378785111588	299.973749159321	660.302920605607	1072.798564817940	206.951722368618	590.059150756861	935.167463886067	42.770549217520	571.555531882495	1109.171032234719	97.653647444413	590.929619265906	1025.215355129037	37.117206592961	638.345214980718	1231.378958170586	45.280738916691	606.850929638266	958.048410216075	111.697031182556	397.507580870219	1018.151829166609	96.591024272085	308.485554529726	1115.698721429061	137.180117423150	323.548624499788	1221.604042784653	61.936385404319	276.590570649828	967.731228070248	1078.783994571717	254.282620281282	1016.629637978948	824.829569752648	226.100006417302	1139.429403712089	1106.672346285976	821.059582346215	1344.215756828560	958.814457235703	770.526327737910	
54	2.804428571429	871.575146577042	1009.441554281390	560.813847771998	1036.804088004066	1432.654507569409	350.001548097793	1158.249770967808	1362.568694769115	496.284680649153	1104.379784757855	1443.648678617652	678.668857988291	1060.495285193879	1497.990787378827	502.270671253361	1114.482086312079	941.822688594782	643.068863701156	1061.747806953012	969.608945249559	373.814919213012	1143.274998345399	739.405210670434	604.301481751648	1065.959903498909	632.081197854628	672.507729524086	1129.129658751697	579.638253699281	581.499834694130	1125.894601087191	494.068445984118	585.014469661381	1150.323094528373	793.842326491533	396.881731690779	1107.390876516687	666.462758847033	317.602904918759	1215.292471809450	608.194080457353	372.169300759641	1237.701726553518	529.051291769589	361.493323084955	1195.226728601760	454.703283765800	351.184582613654	1080.950573203513	362.953860261266	305.158626795717	1126.918149542288	236.495076130469	349.981200038915	1099.593285843097	404.972828831622	593.660169674582	1035.610025893276	299.796925114515	661.010151771058	1067.660219488487	206.745514939982	590.465896968721	929.611350309777	42.795448118510	571.594962172675	1103.664001462092	97.587834597989	591.112525626286	1019.644666316637	37.094635417831	638.421668916761	1225.841328792514	45.008138147957	606.903450059566	985.505429470297	97.145801549507	393.544888274204	1047.948825920485	86.475450673360	305.470993237462	1142.207511578115	134.029067985487	321.712231007057	1254.088632942694	66.698311850927	276.517784434719	961.872467483575	1079.993170153730	256.551840082957	1003.491956932421	825.021998589344	227.859181002630	1146.492044544369	1107.203787038385	820.623189223268	1355.632441646260	967.586221152899	765.799285778672	
55	2.818285714286	871.193529918956	1009.947013663762	562.504209444932	1035.835126655775	1432.917108084240	351.311256616696	1158.146897645801	1362.453245597590	496.666407854886	1105.770469204511	1443.672976962894	679.484306617146	1060.657228436108	1498.107562395220	503.506998705574	1114.268312759596	941.601883541021	643.234601224609	1060.453228136683	969.991020942099	374.273340012671	1141.139930825779	738.849449417118	604.592261168217	1063.310804350181	631.944399376582	673.242026937860	1125.729557450708	579.088099242241	582.125333210696	1121.852600853053	493.634694226395	585.814182417563	1147.625382864451	793.227909033404	397.404113064221	1104.362985812732	666.381121645242	317.509976679639	1211.165499151931	607.341606480913	373.288568645326	1234.743947541622	530.795810805362	362.489119399985	1196.774289355460	456.471753072768	351.447804274853	1090.339476513136	357.060783749651	303.006508169774	1144.582510103322	233.744506924237	348.364395831268	1095.267864585494	404.644902313738	594.299443404146	1030.887895748841	299.628558038484	661.725640591268	1062.565399662795	206.528159808070	590.874573326788	924.048657897475	42.834161783388	571.633847301551	1098.167918043272	97.518130357766	591.293650443325	1014.077086952738	37.078636063753	638.491792708480	1220.315158022356	44.707072793457	606.966263547664	1012.829761635948	84.570181693481	389.328973700225	1077.716689591735	77.858493075322	302.577312886354	1168.361765193753	131.847364845557	320.192773720627	1285.605296990321	72.092727811501	277.616545992129	956.121827823382	1081.236214407821	258.696640629905	991.274178967977	825.543257436290	229.627789433679	1153.227156674526	1107.542496602109	819.740541489014	1366.204725036811	976.014923753764	760.766902099611	
56	2.832142857143	870.843214771081	1010.311878641098	563.912677902008	1034.903068568781	1433.153698152025	352.498493424008	1157.983321329823	1362.315425950590	497.002378465788	1106.907764091739	1443.587124122395	680.226421369354	1060.737656789037	1498.172686150312	504.661590245734	1114.111271460248	941.393951233236	643.299687106155	1059.349348190415	970.222657006001	374.593973182858	1139.140827651737	738.312788534502	604.845153745096	1060.762153521791	631.792294040429	673.884552106797	1122.476133503684	578.532531521062	582.717497381665	1117.920594475795	493.177488798662	586.580818236593	1144.798994797423	792.095511125414	397.842468373904	1101.126525474994	665.994816904835	317.149763455978	1206.603010826727	605.918465482529	374.374156230508	1231.256630050926	532.076224878169	363.513259250716	1197.693550522301	458.075985184022	351.723112124858	1099.427988610011	351.678045266853	300.756549902320	1161.378152604776	231.961369155739	346.898770722203	1091.039912024498	404.303645595327	594.904991780850	1026.216118958237	299.478357936181	662.433324387668	1057.517652543867	206.307702543746	591.274453432106	918.483181246916	42.887535579470	571.672206534633	1092.679571742416	97.440739855522	591.458909990941	1008.512640639427	37.070621015539	638.554003789123	1214.798660380009	44.387368940885	607.038603375787	1039.325251795955	74.275759891220	385.164673411539	1106.687354656960	70.925978633287	300.018126505955	1193.562682134209	130.691095244366	319.059561520257	1315.465325629059	77.945590272197	279.799877922891	950.521368267819	1082.503929331829	260.714221801897	980.025837800476	826.316019805620	231.376192151612	1159.637159553872	1107.706594352891	818.419495991591	1375.931034060450	984.008745303020	755.471087405465	
57	2.846000000000	870.536579389114	1010.533056704571	565.027980867944	1034.000750677365	1433.375299971115	353.549737357796	1157.744637735604	1362.177893483484	497.292455958432	1107.755726681881	1443.410508554576	680.889569042227	1060.716027331074	1498.199724916976	505.722129651723	1114.017306108483	941.215327197270	643.293453531810	1058.448626917319	970.314853804179	374.782168752846	1137.294970553803	737.799440432237	605.068209062453	1058.309969889269	631.633036687080	674.428377292278	1119.370006874372	577.975502426122	583.271391936556	1114.106424024207	492.703091624303	587.300371021840	1141.961998165381	790.570267332077	398.179417733530	1097.819649297372	665.366645982567	316.572805465866	1201.867985003338	604.101898626275	375.332414519536	1227.472288854063	532.957745631676	364.498235354024	1198.093625935016	459.521706075935	351.971022395310	1107.958484763894	346.956481374568	298.597790921264	1176.921488970942	231.122628346773	345.647315022486	1086.905061811165	403.956057357883	595.462413370711	1021.592101872295	299.354974257796	663.113465755115	1052.516624117998	206.092420659649	591.655657304612	912.918238727876	42.955743311940	571.709897338954	1087.196558170753	97.355147565343	591.599396333180	1002.950966968557	37.071487787298	638.607108265989	1209.288607135908	44.060696105310	607.118276063195	1064.279505728923	66.350939730152	381.371415452131	1134.041543664956	65.687839951639	297.978652293388	1217.187580684613	130.477465707790	318.337627762349	1342.991739317990	83.975674003154	282.836083486761	945.123386591574	1083.787381569777	262.594205565275	969.780140731557	827.268500493110	233.070308914648	1165.716491376396	1107.728267530245	816.681151187477	1384.811900858708	991.494968588418	749.954814696051	
58	2.859857142857	870.288300024112	1010.610834768801	565.842789568547	1033.114229669049	1433.593311355009	354.454237561723	1157.416314598057	1362.064905848137	497.533936048091	1108.287765403772	1443.165473278658	681.467302755238	1060.569956892222	1498.202247891380	506.677532062965	1113.993208786295	941.080665410383	643.238447363801	1057.761790692764	970.282997371915	374.840387700313	1135.609041726313	737.311165135214	605.263767075254	1055.945895414943	631.475140302303	674.868998169977	1116.403761118575	577.421105308256	583.781218821379	1110.414951938462	492.217454476981	587.960964386090	1139.252873796675	788.798749051183	398.385133322921	1094.574227582026	664.545656462797	315.862732397191	1197.237574233765	602.073522893749	376.073669382471	1223.632352926423	533.499979381432	365.377809343299	1198.095648968573	460.785584879446	352.160732918712	1115.658951357074	342.960748540183	296.724195305711	1190.849892289216	231.086371872457	344.661978042421	1082.854822511084	403.607885459439	595.959681767659	1017.010372410056	299.264632199099	663.744755615410	1047.559807474974	205.889313970764	592.010254442654	907.356004129575	43.038131301966	571.746810942302	1081.717326037981	97.264051691210	591.712375383501	997.391185146119	37.081362122848	638.650633654434	1203.781049320152	43.738997181470	607.202612022029	1087.001450904270	60.679911101096	378.253285104621	1158.955141400411	61.999123194400	296.599616988611	1238.617628542064	131.002381766002	318.016266927404	1367.542665856188	89.822039599062	286.379869450733	939.987510412282	1085.074759652600	264.317849298187	960.557917284056	828.335159577753	234.672661173443	1171.450663794911	1107.647843001363	814.561738644812	1392.847566828870	998.417688463612	744.264060691788	
